<svg xmlns="http://www.w3.org/2000/svg" viewBox="0 0 1301.09 982.57"><defs><style>.a{fill:#f3f2f7;}.b{fill:#e9b843;}.c{fill:#202e5b;}.d{fill:#3247a4;}.e{fill:#f04059;}.f{fill:#6accd9;}.g{fill:#3f95bb;}.h{fill:#fff;}.i{fill:#fbdc90;}</style></defs><path class="a" d="M1391.92,953.21H215.48v39.25H1391.92V953.21" transform="translate(-149.45 -175.38)"/><path class="b" d="M224.07,592.32c5,2.58,42.77,21,94.79,25.11,6.67.53,12.2.71,15.95.77-.8-3.65-1.94-9.27-3-16.18-5-32.95-1.46-53.27-1.2-76.78.24-21.69.48-43.76-7.9-66.17-7.93-21.2-19.88-32.83-60.46-69-51.93-46.32-78-69.44-83.49-67.66-40.88,13.3-30.9,230.8,45.29,269.93" transform="translate(-149.45 -175.38)"/><path class="b" d="M404.39,704.61c-23.86-56.69-82.86-96.62-83.46-97l2.23-3.33c.6.41,60.59,41,84.92,98.79l-3.69,1.56" transform="translate(-149.45 -175.38)"/><path class="b" d="M304,804.64c9.31,1.29,29.93,4.13,46.65-8.13A48.78,48.78,0,0,0,365.18,779c13.76-26.85,6.06-74.75-22.39-102.48-24.32-23.7-59.38-26.36-129.49-31.68-14.69-1.11-27.32-1.53-36.85-1.68a13.22,13.22,0,0,0-11.73,6.5l-.06.1c-22.49,40,74,145.91,139.34,154.93" transform="translate(-149.45 -175.38)"/><path class="b" d="M429.62,819.91c-30.9-32.24-81.31-44-81.81-44.11l.88-3.9c.52.12,52.09,12.15,83.82,45.24l-2.89,2.77" transform="translate(-149.45 -175.38)"/><path class="c" d="M1151.54,287.26H371.74v666h779.8V287.26" transform="translate(-149.45 -175.38)"/><path class="d" d="M853.57,470.4H669.71V592H853.57V470.4" transform="translate(-149.45 -175.38)"/><path class="c" d="M733.63,592h-7.9V470.4h7.9V592" transform="translate(-149.45 -175.38)"/><path class="c" d="M797.55,592h-7.9V470.4h7.9V592" transform="translate(-149.45 -175.38)"/><path class="b" d="M1033.8,473.27h-56V594.9h56V473.27" transform="translate(-149.45 -175.38)"/><path class="e" d="M545.5,473.27h-56V594.9h56V473.27" transform="translate(-149.45 -175.38)"/><path class="f" d="M1244.12,674.06H733.54L625.81,629.92h525.73l92.58,44.14" transform="translate(-149.45 -175.38)"/><path class="d" d="M707,664.66,517.49,585.28,328,664.66V953.21H707V664.66" transform="translate(-149.45 -175.38)"/><path class="g" d="M1244.12,694.17H736L517.49,602.64,300.83,693.39l-7.77-18.55,224.43-94,222.57,93.23h504.06v20.11" transform="translate(-149.45 -175.38)"/><path class="c" d="M651.71,953.21H383.27V731.52H651.71V953.21" transform="translate(-149.45 -175.38)"/><path class="b" d="M651.71,779.76H383.27V731.52H651.71v48.24" transform="translate(-149.45 -175.38)"/><path class="f" d="M893,910.1H707v21.55H893V910.1" transform="translate(-149.45 -175.38)"/><path class="g" d="M893,931.65H707v21.56H893V931.65" transform="translate(-149.45 -175.38)"/><path class="h" d="M847.5,726.36H751.91V910.1H847.5V726.36" transform="translate(-149.45 -175.38)"/><path class="b" d="M772.82,827.26a5.54,5.54,0,1,1-5.53-5.53,5.54,5.54,0,0,1,5.53,5.53" transform="translate(-149.45 -175.38)"/><path class="d" d="M1097.72,726.36H913.86V848h183.86V726.36" transform="translate(-149.45 -175.38)"/><path class="c" d="M977.78,848h-7.9V726.36h7.9V848" transform="translate(-149.45 -175.38)"/><path class="c" d="M913.86,791.12v-7.9h183.86v7.9H913.86" transform="translate(-149.45 -175.38)"/><path class="c" d="M1041.7,848h-7.9V726.36h7.9V848" transform="translate(-149.45 -175.38)"/><path class="f" d="M1244.12,423.17H956.91L761.64,292.94,580.12,425.32H279.17l94.91-172.84H1149.2l94.92,170.69" transform="translate(-149.45 -175.38)"/><path class="g" d="M572.67,445.43H279.17V425.32H565.83L761.6,274.6,957.42,423.17h286.7v20.11H950.65l-189-143.37-189,145.52" transform="translate(-149.45 -175.38)"/><path class="h" d="M783.94,372.09a22.3,22.3,0,1,1-22.3-22.3,22.29,22.29,0,0,1,22.3,22.3" transform="translate(-149.45 -175.38)"/><path class="c" d="M1033.8,195.25h-56V317.83h56V195.25" transform="translate(-149.45 -175.38)"/><path class="d" d="M1009.34,242.67H977.78V227.82h31.56v14.85" transform="translate(-149.45 -175.38)"/><path class="d" d="M1025.12,267.33H993.56V252.48h31.56v14.85" transform="translate(-149.45 -175.38)"/><path class="d" d="M1048.17,186.39H963.42v-11h84.75v11" transform="translate(-149.45 -175.38)"/><path class="d" d="M985.4,186.39h-7.62v8.86h7.62v-8.86" transform="translate(-149.45 -175.38)"/><path class="d" d="M1033.8,186.39h-7.62v8.86h7.62v-8.86" transform="translate(-149.45 -175.38)"/><path class="b" d="M1300.71,529.77a279.34,279.34,0,0,0,6.91-62.55c0-90.88-41.25-164.55-92.15-164.55s-92.14,73.67-92.14,164.55a279.34,279.34,0,0,0,6.91,62.55,112.77,112.77,0,1,0,170.47,0" transform="translate(-149.45 -175.38)"/><path class="c" d="M1219.55,953.21h-14.86V615.48h14.86V953.21" transform="translate(-149.45 -175.38)"/><path class="c" d="M1214.75,696.11l-5.26-5.26,48.1-48.1,5.26,5.26-48.1,48.1" transform="translate(-149.45 -175.38)"/><path class="b" d="M1112.82,953.21a42,42,0,0,0,1.17-9.81c0-16-9.12-30.18-23.17-39-3.11-22.41-25.49-39.79-52.65-39.79-28.05,0-51,18.55-52.9,42a54.19,54.19,0,0,0-19.36-3.52c-26.13,0-47.32,18-47.32,40.29a34.84,34.84,0,0,0,1.42,9.81h192.81" transform="translate(-149.45 -175.38)"/><path class="h" d="M669.71,938.42H448.31V875.26h221.4v63.16" transform="translate(-149.45 -175.38)"/><path class="g" d="M567,1150.74H551.05V938.42H567v212.32" transform="translate(-149.45 -175.38)"/><path class="c" d="M467.66,920.23V893.71h19.09v4.82H472.67v7.25H486v4.63H472.67v9.82h-5" transform="translate(-149.45 -175.38)"/><path class="c" d="M494.75,907.22c.12,4.36,2.47,9,8.73,9s8.61-4.7,8.69-9.07-2.43-9.48-8.69-9.48S494.64,902.75,494.75,907.22Zm22.35-.11c-.08,6.86-4.29,13.73-13.62,13.73s-13.66-6.71-13.66-13.7,4.48-14,13.66-14,13.7,7,13.62,14" transform="translate(-149.45 -175.38)"/><path class="c" d="M525.83,898.34v8.5h7.63c3.18,0,4.55-2.12,4.55-4.25a4.16,4.16,0,0,0-4.55-4.25Zm18.52,21.89h-6l-7.74-8.87h-4.82v8.87h-5V893.64c4.21,0,8.42,0,12.64,0,6.26,0,9.56,4.21,9.56,8.8,0,3.64-1.67,7.32-6.72,8.35l8.05,9.06v.34" transform="translate(-149.45 -175.38)"/><path class="c" d="M570.45,900.09c-.91-1.52-3.41-3-6.3-3-3.72,0-5.5,1.56-5.5,3.53,0,2.31,2.73,3,5.92,3.34,5.54.68,10.7,2.12,10.7,8.46,0,5.92-5.24,8.46-11.16,8.46-5.42,0-9.59-1.67-11.57-6.53l4.18-2.16c1.17,2.92,4.25,4.21,7.47,4.21s6.11-1.1,6.11-4c0-2.51-2.62-3.53-6.15-3.91-5.42-.64-10.43-2.09-10.43-8,0-5.47,5.39-7.71,10.28-7.74,4.14,0,8.42,1.17,10.43,5.27l-4,2.05" transform="translate(-149.45 -175.38)"/><path class="c" d="M591.06,899.25l-4.94,11.31H596Zm6.94,16H584.11l-2.27,5h-5.43l11.92-26.55h5.46l11.91,26.55h-5.46l-2.24-5" transform="translate(-149.45 -175.38)"/><path class="c" d="M613.37,893.68v21.93H627v4.62H608.36V893.68h5" transform="translate(-149.45 -175.38)"/><path class="c" d="M650.36,920.23H630.48V893.68h19.88v4.85H635.45v6.11h14.38v4.67H635.45v6h14.91v4.93" transform="translate(-149.45 -175.38)"/><path class="b" d="M718.25,980.8l-41.41-45.65-6.26,5.69,23.36,41.67,24.31-1.71" transform="translate(-149.45 -175.38)"/><path class="e" d="M716.11,963.15l3.68,1a6.14,6.14,0,0,0,7.49-4.41l3-11.59a8.23,8.23,0,0,0-5.9-10l-1.67-.43-6.61,25.5" transform="translate(-149.45 -175.38)"/><path class="i" d="M707.32,961.44h6.26l4.67,16h-16l5-16" transform="translate(-149.45 -175.38)"/><path class="i" d="M705.44,967.64l7.35,1.9a6,6,0,0,0,7.38-4.34l5.57-21.47L702,937.59l-4.36,16.86a10.82,10.82,0,0,0,7.76,13.19" transform="translate(-149.45 -175.38)"/><path class="i" d="M720.75,956.64a2.3,2.3,0,1,0,2.29-2.29,2.3,2.3,0,0,0-2.29,2.29" transform="translate(-149.45 -175.38)"/><path class="c" d="M733.48,1053l-3.86,48.9L747,1145.11h-5l-26.82-42.18-4.53-34h-1.91l-7.49,32.89-.78,43.32h-5.05l-7.18-43.1,1-49h44.28" transform="translate(-149.45 -175.38)"/><path class="e" d="M732.55,1150.74h4.72l4.72-1.52v-4.11l-4.72,2.28-4.72,1.12v2.23" transform="translate(-149.45 -175.38)"/><path class="e" d="M743.45,1150.74H747v-5.63h-5v4.11l1.46,1.52" transform="translate(-149.45 -175.38)"/><path class="e" d="M686,1150.74h4.71l4.72-1.52v-4.11l-4.72,2.28-4.71,1.12v2.23" transform="translate(-149.45 -175.38)"/><path class="e" d="M696.88,1150.74h3.58v-5.63h-5.05v4.11l1.47,1.52" transform="translate(-149.45 -175.38)"/><path class="i" d="M676.22,935.7l-2.28-4.51a6.32,6.32,0,0,0-3.92-3.25l-5.34-1.53a.36.36,0,0,0-.37.58l4.48,5a1.84,1.84,0,0,1,.36,1.9,4.7,4.7,0,0,0,.53,4.4l1.45,2.08,5.09-4.67" transform="translate(-149.45 -175.38)"/><path class="e" d="M704.05,944l17.55,4.55,2.72-10.49-17.55-4.54A4.72,4.72,0,0,0,701,937l-.34,1.34a4.71,4.71,0,0,0,3.38,5.75" transform="translate(-149.45 -175.38)"/><path class="e" d="M720.35,955.58a2.46,2.46,0,0,0,3-1.77l3.26-12.58L721.84,940l-3.26,12.58a2.46,2.46,0,0,0,1.77,3" transform="translate(-149.45 -175.38)"/><path class="b" d="M682.32,1072h56.92l-6-84.79a10.71,10.71,0,0,0-10.67-9.84H699a10.72,10.72,0,0,0-10.67,9.84l-2.16,26.36-.39,5L682.32,1072" transform="translate(-149.45 -175.38)"/><path class="i" d="M634.91,943.48l-2.61-6.35a6.35,6.35,0,0,1,.13-5.09l2.35-5a.35.35,0,0,1,.67.1l.83,6.66a1.87,1.87,0,0,0,1.21,1.52,4.69,4.69,0,0,1,3,3.28l.63,2.47-6.18,2.44" transform="translate(-149.45 -175.38)"/><path class="b" d="M653.36,977.59l36.39,18.29,8.17-18.42L661.2,962.77,641.09,941l-6.18,2.44,14.17,29.13a8.54,8.54,0,0,0,4.28,5" transform="translate(-149.45 -175.38)"/><path class="a" d="M1450.55,1150.77H149.45V1158h1301.1v-7.18" transform="translate(-149.45 -175.38)"/><path class="e" d="M896.74,824.85a14.45,14.45,0,0,1-1-6.17,7.21,7.21,0,0,0-2.22-5.68,14.56,14.56,0,1,1,24.64-9.63,7.3,7.3,0,0,0,2.23,5.73,14.55,14.55,0,0,1,4,14,5.07,5.07,0,0,0,1,4.38,11.74,11.74,0,1,1-20.91,8.14,5,5,0,0,0-2.22-3.9,14.41,14.41,0,0,1-5.56-6.86" transform="translate(-149.45 -175.38)"/><path class="i" d="M837.38,928.57s-5.71.59-9.09,3.08a6.65,6.65,0,0,0-2.82,4.07l-1.06,5.56c-.07.36.35.63.59.38l4.45-4.64a1.62,1.62,0,0,1,1.8-.35,4.08,4.08,0,0,0,4.17-.52l4.75-2.38-2.79-5.2" transform="translate(-149.45 -175.38)"/><path class="i" d="M840.17,933.77l54.89-13.46-3-54.81-22.85,1.25,2.34,43-34.35,18.78,3,5.22" transform="translate(-149.45 -175.38)"/><path class="i" d="M924.35,963.26l-8.24,80L977,1097.89l-5.46,3.83-69.24-52a10.18,10.18,0,0,1-4.18-7.93l-1.78-56.5h-5.1l-11.4,67.85L878.76,1143h-7l-8.58-89.84V963.26h61.14" transform="translate(-149.45 -175.38)"/><path class="e" d="M924.35,963.26l-8.24,80,44.37,39.67-6.43,5.87-51.76-39.1a10.18,10.18,0,0,1-4.18-7.93l-5.18-56.5h-1.7l-11.4,67.85-.81,68.23h-9.3l-6.51-68.23V963.26h61.14" transform="translate(-149.45 -175.38)"/><path class="c" d="M858.75,1150.74h6.52l9.49-3.07-3-4.7-13,6.26v1.51" transform="translate(-149.45 -175.38)"/><path class="c" d="M873.82,1150.74h4.94V1143h-7l3,4.7-.94,3.07" transform="translate(-149.45 -175.38)"/><path class="c" d="M965.5,1115.65l5.29-3.81,5.9-8-5.16-2.09-6.91,12.71.88,1.22" transform="translate(-149.45 -175.38)"/><path class="c" d="M977.72,1106.85l4-2.89-4.55-6.31-5.65,4.07,5.16,2.09,1,3" transform="translate(-149.45 -175.38)"/><path class="d" d="M856.1,991.75l78,17.79L920.93,866.91a19.58,19.58,0,0,0-19.54-18.25H884.57a16.86,16.86,0,0,0-16.82,15.71L856.1,991.75" transform="translate(-149.45 -175.38)"/><path class="i" d="M940.29,959.31l22.44-56A13.26,13.26,0,0,0,958,887.44l-45.85-35.31a20.25,20.25,0,0,0,2.39,32l27.69,18.15L934.83,957l5.46,2.28" transform="translate(-149.45 -175.38)"/><path class="i" d="M884.83,824.46h9.9L901.91,849a.89.89,0,0,1-.4,1l-13.41,8.14a2.55,2.55,0,0,1-3.79-1.56L882.64,850a2,2,0,0,1,0-.55l2.23-24.95" transform="translate(-149.45 -175.38)"/><path class="i" d="M886.59,839.37l9.38-1.31a7.56,7.56,0,0,0,6.44-8.54l-3.83-27.41-30.26,4.23,3,21.53a13.51,13.51,0,0,0,15.26,11.5" transform="translate(-149.45 -175.38)"/><path class="e" d="M904.69,820.73A15.7,15.7,0,0,1,889,805.07l.05-11.68h2.57a13.08,13.08,0,0,1,13,13.09v14.25" transform="translate(-149.45 -175.38)"/><path class="e" d="M866.38,808.29H882a8.3,8.3,0,0,0,8.15-9.89l-1-5h-7.87a14.9,14.9,0,0,0-14.89,14.9h0" transform="translate(-149.45 -175.38)"/><path class="i" d="M896.28,818.79a2.86,2.86,0,1,0,2.44-3.23,2.87,2.87,0,0,0-2.44,3.23" transform="translate(-149.45 -175.38)"/><path class="i" d="M934.83,957s-3.87,4.23-4.74,8.33a6.67,6.67,0,0,0,.59,4.92l2.9,4.86a.37.37,0,0,0,.7-.11l.24-6.42a1.62,1.62,0,0,1,1.12-1.46,4.1,4.1,0,0,0,2.77-3.16l2-4.93-5.54-2" transform="translate(-149.45 -175.38)"/><path class="e" d="M1107.77,668.31h8.69v21.56a5.43,5.43,0,0,1-5.43,5.43h-3.26v-27" transform="translate(-149.45 -175.38)"/><path class="e" d="M1042.18,911.32l-38-68.23a14.88,14.88,0,0,1-.31-14.79l52.33-96.17,22.89,12.46-48,94.32,28.51,62.63-17.43,9.78" transform="translate(-149.45 -175.38)"/><path class="g" d="M1165.38,866.35l-13.17,140.36,27.69,131.6h-11.14s-42.46-90.18-56-120.5c-4.07-9.07-6.07-15.21-6.26-25.16l-.94-62.5H1095L1077.59,1004l-16.74,134.32h-11.14l-16.31-126a76.25,76.25,0,0,1-.18-16.68l10.18-129.29h122" transform="translate(-149.45 -175.38)"/><path class="b" d="M1147.92,1150.74h10.42l10.42-3.36v-9.07l-10.42,5-10.42,2.46v4.93" transform="translate(-149.45 -175.38)"/><path class="b" d="M1172,1150.74h7.9v-12.43h-11.14v9.07l3.24,3.36" transform="translate(-149.45 -175.38)"/><path class="b" d="M1028.87,1150.74h10.42l10.42-3.36v-9.07l-10.42,5-10.42,2.46v4.93" transform="translate(-149.45 -175.38)"/><path class="b" d="M1053,1150.74h7.9v-12.43h-11.14v9.07l3.24,3.36" transform="translate(-149.45 -175.38)"/><path class="i" d="M1096.34,703.72h9.54a7.62,7.62,0,0,0,7.61-7.62V668.23h-30.75v21.88a13.6,13.6,0,0,0,13.6,13.61" transform="translate(-149.45 -175.38)"/><path class="i" d="M1269.36,804.65l10-5.44a10.62,10.62,0,0,0,5.23-6.73l2.28-9a.6.6,0,0,0-1-.58l-8.11,7.74a3.13,3.13,0,0,1-3.17.68,7.9,7.9,0,0,0-7.31,1.1l-3.42,2.54,5.53,9.68" transform="translate(-149.45 -175.38)"/><path class="e" d="M1172.8,895.68h-62.55l-5.86-25.56-9,25.56H1036l17.18-155.27a19.67,19.67,0,0,1,19.56-17.51h63.35a19.66,19.66,0,0,1,19.55,17.51l7.62,68.88,9.56,86.39" transform="translate(-149.45 -175.38)"/><path class="h" d="M1089.62,722.9l2,38.64,23.08-38.64Z" transform="translate(-149.45 -175.38)"/><path class="i" d="M1107.21,695.3,1092.82,692l-3.2,30.89,7.29,2.73,17.81-2.73-7.51-27.6" transform="translate(-149.45 -175.38)"/><path class="e" d="M1181.29,836.36,1125,759.23l28.06-26.58,47.19,78.8,64.18-20.66,6.44,16.43-67.33,30.15c-8.1,3.63-17.63.66-22.24-1" transform="translate(-149.45 -175.38)"/><path class="e" d="M1096.79,667.19a9.19,9.19,0,1,1-9.19-9.19,9.18,9.18,0,0,1,9.19,9.19" transform="translate(-149.45 -175.38)"/><path class="e" d="M1116.46,676.38h-28.08V662.11h20.86a7.21,7.21,0,0,1,7.22,7.21v7.06" transform="translate(-149.45 -175.38)"/><path class="i" d="M1115.06,687.55a2.95,2.95,0,1,1-3-2.95,2.95,2.95,0,0,1,3,2.95" transform="translate(-149.45 -175.38)"/><path class="i" d="M360.79,895.58,361,998.79l-1.9,139.83H370l16.93-139.83,3.32-105.61h7.93l17.74,105.61,1.67,139.83h10.85l13.36-139.83V859l-81,36.63" transform="translate(-149.45 -175.38)"/><path class="c" d="M448.68,1150.74H438.53L423.77,1146l4.62-7.33,20.29,9.75v2.35" transform="translate(-149.45 -175.38)"/><path class="c" d="M425.24,1150.74h-7.69v-12.1h10.84l-4.62,7.33,1.47,4.77" transform="translate(-149.45 -175.38)"/><path class="c" d="M390.24,1150.74H380.1L365.33,1146l4.62-7.33,20.29,9.75v2.35" transform="translate(-149.45 -175.38)"/><path class="c" d="M366.8,1150.74h-7.69v-12.1H370l-4.62,7.33,1.47,4.77" transform="translate(-149.45 -175.38)"/><path class="e" d="M351.13,986.48h98L472.42,879,368.49,845.5,364.37,851A77.78,77.78,0,0,0,349,899.63l2.14,86.85" transform="translate(-149.45 -175.38)"/><path class="e" d="M542.38,876.69l6.65-6.76L484,811.47,507.48,763l-22.18,3.22-32.89,53.65,90,56.87" transform="translate(-149.45 -175.38)"/><path class="e" d="M368.49,845.5,471,885.43l36.53-123.15a20.7,20.7,0,0,0-14.22-21.91l-50.65-16.32a20.71,20.71,0,0,0-24.86,10.43l-49.34,111" transform="translate(-149.45 -175.38)"/><path class="e" d="M385.38,870.05l8.64-3.56-17.47-70a1.82,1.82,0,0,1,1.06-2.28l70.72-39.22L426.9,725.25l-72,50.93a12.06,12.06,0,0,0-5.27,16.26l35.8,77.61" transform="translate(-149.45 -175.38)"/><path class="i" d="M549,869.93l6.8-1.12a8.68,8.68,0,0,1,6.74,1.73l6,4.66a.49.49,0,0,1-.35.87l-9.1-.93a2.53,2.53,0,0,0-2.39,1.14,6.4,6.4,0,0,1-5.27,2.94l-9-2.53,6.65-6.76" transform="translate(-149.45 -175.38)"/><path class="c" d="M458,701.4a9.23,9.23,0,1,0,11.49-5.57A9,9,0,0,0,458,701.4" transform="translate(-149.45 -175.38)"/><path class="c" d="M467.65,701.44,478.56,705l4.08-12.66-10.91-3.52-4.08,12.66" transform="translate(-149.45 -175.38)"/><path class="i" d="M472.54,696.58a2.57,2.57,0,1,0,3.23-1.65,2.57,2.57,0,0,0-3.23,1.65" transform="translate(-149.45 -175.38)"/><path class="i" d="M475.7,702l9.88,3.18-1.64,32.18-3.83,11.87a3.51,3.51,0,0,1-6.19,1l-15.13-21L475.7,702" transform="translate(-149.45 -175.38)"/><path class="i" d="M486.52,717.92l-11.59-3.74a5.44,5.44,0,0,1-3.51-6.85l8-24.86,26,8.39-6.7,20.78a9.74,9.74,0,0,1-12.25,6.28" transform="translate(-149.45 -175.38)"/><path class="c" d="M471.73,688.78l26.52,8.55a6.55,6.55,0,0,0,8.25-4.23l1-3a6.56,6.56,0,0,0-4.23-8.25l-14-4.52a13.11,13.11,0,0,0-16.5,8.45l-1,3" transform="translate(-149.45 -175.38)"/><path class="i" d="M394.06,866.37l4.32,5.37a8.7,8.7,0,0,1,1.82,6.72L399.08,886a.49.49,0,0,1-.93.12l-3.67-8.38a2.53,2.53,0,0,0-2.17-1.52,6.41,6.41,0,0,1-5.16-3.14l-1.77-3,8.68-3.68" transform="translate(-149.45 -175.38)"/></svg>